#!OML:ASF H:\Terrain\Patient Classification 1\PLAYGROUND\JustinFriday\JustinFriday.ASF
:FULLY-SPECIFIED
:DEGREES
51
root 9.45927 17.9408 -18.1841 3.38328 -3.46024 -4.75503
lowerback 10.6593 -0.253502 2.55859
upperback 2.36157 0.101879 4.00383
thorax -3.51712 0.0361711 2.7161
lowerneck -7.18797 -2.73559 -7.05916
upperneck 7.95778 -2.98178 0.952284
head 4.06076 -1.6513 1.40683
rclavicle 1.19271e-014 3.97569e-015
rhumerus -31.7648 3.60816 -86.9181
rradius 53.3978
rwrist -20.2955
rhand -19.3554 -20.9106
rfingers 7.12502
rthumb 6.96211 -50.7761
lclavicle 1.19271e-014 3.97569e-015
lhumerus -4.11253 -13.3139 77.3021
lradius 132.832
lwrist 3.3096
lhand -42.6232 -22.9072
lfingers 7.12502
lthumb -15.4955 6.49182
rfemur -10.0432 1.84345 23.8636
rtibia 27.5366
rfoot -13.5067 -11.3215
rtoes 3.03375
lfemur -9.97849 0.0388719 -11.9974
ltibia 27.4902
lfoot -16.1102 4.46266
ltoes -4.60827
52
root 9.46127 17.939 -18.1937 3.40405 -3.62607 -4.65152
lowerback 10.8933 -0.205595 2.44743
upperback 2.42995 0.162049 4.01755
thorax -3.57714 0.066632 2.78682
lowerneck -7.17171 -2.77259 -7.0155
upperneck 7.54261 -3.04217 0.959904
head 3.91095 -1.67095 1.39804
rclavicle -6.75868e-015 3.26007e-014
rhumerus -32.0561 3.9717 -86.9918
rradius 55.692
rwrist -20.47
rhand -18.9507 -20.3169
rfingers 7.12502
rthumb 7.3527 -50.1692
lclavicle -6.75868e-015 3.26007e-014
lhumerus -5.75003 -12.8224 77.7993
lradius 132.417
lwrist 4.29795
lhand -40.7539 -22.7352
lfingers 7.12502
lthumb -13.6945 6.79419
rfemur -10.1269 1.74582 23.7119
rtibia 27.5492
rfoot -13.6838 -11.0308
rtoes 2.93818
lfemur -10.109 0.189615 -12.1325
ltibia 27.7128
lfoot -16.2329 4.46688
ltoes -4.71818
53
root 9.45929 17.9365 -18.2057 3.37654 -3.77215 -4.59149
lowerback 11.2118 -0.185308 2.29189
upperback 2.47736 0.186599 4.06426
thorax -3.70488 0.0798438 2.92325
lowerneck -6.67812 -2.69249 -7.30145
upperneck 6.72738 -2.97838 1.26841
head 3.53867 -1.61873 1.56068
rclavicle 5.56597e-015 7.95139e-015
rhumerus -32.1817 4.44475 -87.0978
rradius 57.5873
rwrist -20.4082
rhand -18.5534 -19.3046
rfingers 7.12502
rthumb 7.73618 -49.1431
lclavicle 5.56597e-015 7.95139e-015
lhumerus -7.37179 -11.8632 78.0834
lradius 132.432
lwrist 7.32045
lhand -36.5288 -21.0172
lfingers 7.12502
lthumb -9.61999 8.74314
rfemur -10.212 1.85205 23.6366
rtibia 27.6453
rfoot -13.8927 -10.8673
rtoes 4.21278
lfemur -10.1342 0.295512 -12.1784
ltibia 27.7989
lfoot -16.2793 4.53867
ltoes -5.49338
54
root 9.45603 17.9367 -18.2223 3.47965 -3.77878 -4.59861
lowerback 11.387 -0.215809 2.26005
upperback 2.55802 0.147449 4.07482
thorax -3.71593 0.0604637 2.95909
lowerneck -6.61966 -2.61823 -7.42253
upperneck 6.11444 -2.89375 1.48764
head 3.3181 -1.5589 1.66051
rclavicle -1.33186e-014 -3.33958e-014
rhumerus -32.1512 4.86408 -87.2846
rradius 59.3306
rwrist -20.2114
rhand -18.5953 -18.5811
rfingers 7.12502
rthumb 7.69579 -48.4211
lclavicle -1.33186e-014 -3.33958e-014
lhumerus -9.04251 -11.923 78.3332
lradius 130.946
lwrist 4.9217
lhand -38.4038 -21.7183
lfingers 7.12502
lthumb -11.4288 7.95021
rfemur -10.4573 2.04167 23.6662
rtibia 27.7826
rfoot -14.0087 -10.946
rtoes 5.42362
lfemur -10.3459 0.498892 -12.1247
ltibia 27.8462
lfoot -16.2399 4.36971
ltoes -5.78761
55
root 9.456 17.9355 -18.2371 3.62373 -3.82728 -4.54964
lowerback 11.4686 -0.182555 2.22871
upperback 2.69311 0.183328 4.035
thorax -3.62079 0.0780977 2.92923
lowerneck -6.96889 -2.66818 -7.22604
upperneck 5.77653 -2.95463 1.49598
head 3.26613 -1.57637 1.622
rclavicle -1.41137e-014 7.95139e-015
rhumerus -31.7851 5.12344 -87.4207
rradius 60.828
rwrist -20.2192
rhand -18.8498 -17.9238
rfingers 7.12502
rthumb 7.45013 -47.7726
lclavicle -1.41137e-014 7.95139e-015
lhumerus -10.4072 -11.6671 78.6738
lradius 129.951
lwrist 4.2739
lhand -38.1514 -22.5696
lfingers 7.12502
lthumb -11.1853 7.11221
rfemur -10.7474 2.07995 23.6114
rtibia 27.9129
rfoot -14.0652 -10.8905
rtoes 5.6412
lfemur -10.6353 0.666696 -12.1589
ltibia 27.9901
lfoot -16.2483 4.26314
ltoes -5.67492
